<mxfile host="Electron" agent="Mozilla/5.0 (Windows NT 10.0; Win64; x64) AppleWebKit/537.36 (KHTML, like Gecko) draw.io/24.7.17 Chrome/128.0.6613.36 Electron/32.0.1 Safari/537.36" version="24.7.17">
  <diagram name="페이지-1" id="lcLlRt0JM3U1y7_rHN0O">
    <mxGraphModel dx="2876" dy="1206" grid="1" gridSize="10" guides="1" tooltips="1" connect="1" arrows="1" fold="1" page="1" pageScale="1" pageWidth="827" pageHeight="1169" math="0" shadow="0">
      <root>
        <mxCell id="0" />
        <mxCell id="1" parent="0" />
        <mxCell id="bqIYeae_kL6G4RBP41k4-2" value="&lt;font style=&quot;font-size: 20px;&quot;&gt;로그인 PROCESS&lt;/font&gt;" style="whiteSpace=wrap;html=1;" vertex="1" parent="1">
          <mxGeometry x="-480" y="40" width="200" height="120" as="geometry" />
        </mxCell>
        <mxCell id="bqIYeae_kL6G4RBP41k4-5" value="" style="edgeStyle=orthogonalEdgeStyle;rounded=0;orthogonalLoop=1;jettySize=auto;html=1;" edge="1" parent="1" source="bqIYeae_kL6G4RBP41k4-3" target="bqIYeae_kL6G4RBP41k4-4">
          <mxGeometry relative="1" as="geometry" />
        </mxCell>
        <mxCell id="bqIYeae_kL6G4RBP41k4-3" value="시작" style="strokeWidth=2;html=1;shape=mxgraph.flowchart.terminator;whiteSpace=wrap;" vertex="1" parent="1">
          <mxGeometry x="-60" y="200" width="100" height="60" as="geometry" />
        </mxCell>
        <mxCell id="bqIYeae_kL6G4RBP41k4-7" value="" style="edgeStyle=orthogonalEdgeStyle;rounded=0;orthogonalLoop=1;jettySize=auto;html=1;" edge="1" parent="1" source="bqIYeae_kL6G4RBP41k4-4" target="bqIYeae_kL6G4RBP41k4-6">
          <mxGeometry relative="1" as="geometry" />
        </mxCell>
        <mxCell id="bqIYeae_kL6G4RBP41k4-4" value="로그인 폼&lt;div&gt;(login_form.jsp)&lt;/div&gt;" style="shape=document;whiteSpace=wrap;html=1;boundedLbl=1;strokeWidth=2;" vertex="1" parent="1">
          <mxGeometry x="-70" y="300" width="120" height="80" as="geometry" />
        </mxCell>
        <mxCell id="bqIYeae_kL6G4RBP41k4-9" value="" style="edgeStyle=orthogonalEdgeStyle;rounded=0;orthogonalLoop=1;jettySize=auto;html=1;" edge="1" parent="1" source="bqIYeae_kL6G4RBP41k4-6" target="bqIYeae_kL6G4RBP41k4-8">
          <mxGeometry relative="1" as="geometry" />
        </mxCell>
        <mxCell id="bqIYeae_kL6G4RBP41k4-6" value="ID/PW 입력" style="shape=parallelogram;perimeter=parallelogramPerimeter;whiteSpace=wrap;html=1;fixedSize=1;strokeWidth=2;" vertex="1" parent="1">
          <mxGeometry x="-70" y="420" width="120" height="60" as="geometry" />
        </mxCell>
        <mxCell id="bqIYeae_kL6G4RBP41k4-11" value="" style="edgeStyle=orthogonalEdgeStyle;rounded=0;orthogonalLoop=1;jettySize=auto;html=1;" edge="1" parent="1" source="bqIYeae_kL6G4RBP41k4-8" target="bqIYeae_kL6G4RBP41k4-10">
          <mxGeometry relative="1" as="geometry" />
        </mxCell>
        <mxCell id="bqIYeae_kL6G4RBP41k4-8" value="&lt;div&gt;유효성 검사&lt;/div&gt;(login.jsp)" style="whiteSpace=wrap;html=1;strokeWidth=2;" vertex="1" parent="1">
          <mxGeometry x="-70" y="520" width="120" height="60" as="geometry" />
        </mxCell>
        <mxCell id="bqIYeae_kL6G4RBP41k4-19" value="" style="edgeStyle=orthogonalEdgeStyle;rounded=0;orthogonalLoop=1;jettySize=auto;html=1;" edge="1" parent="1" source="bqIYeae_kL6G4RBP41k4-10" target="bqIYeae_kL6G4RBP41k4-18">
          <mxGeometry relative="1" as="geometry" />
        </mxCell>
        <mxCell id="bqIYeae_kL6G4RBP41k4-30" value="" style="edgeStyle=orthogonalEdgeStyle;rounded=0;orthogonalLoop=1;jettySize=auto;html=1;" edge="1" parent="1" source="bqIYeae_kL6G4RBP41k4-10" target="bqIYeae_kL6G4RBP41k4-29">
          <mxGeometry relative="1" as="geometry" />
        </mxCell>
        <mxCell id="bqIYeae_kL6G4RBP41k4-10" value="ID is NULL" style="rhombus;whiteSpace=wrap;html=1;strokeWidth=2;" vertex="1" parent="1">
          <mxGeometry x="150" y="510" width="80" height="80" as="geometry" />
        </mxCell>
        <mxCell id="bqIYeae_kL6G4RBP41k4-13" value="username_msg" style="swimlane;fontStyle=0;childLayout=stackLayout;horizontal=1;startSize=30;horizontalStack=0;resizeParent=1;resizeParentMax=0;resizeLast=0;collapsible=1;marginBottom=0;whiteSpace=wrap;html=1;" vertex="1" parent="1">
          <mxGeometry x="400" y="360" width="140" height="60" as="geometry" />
        </mxCell>
        <mxCell id="bqIYeae_kL6G4RBP41k4-14" value="username을 입력하세요" style="text;strokeColor=none;fillColor=none;align=left;verticalAlign=middle;spacingLeft=4;spacingRight=4;overflow=hidden;points=[[0,0.5],[1,0.5]];portConstraint=eastwest;rotatable=0;whiteSpace=wrap;html=1;" vertex="1" parent="bqIYeae_kL6G4RBP41k4-13">
          <mxGeometry y="30" width="140" height="30" as="geometry" />
        </mxCell>
        <mxCell id="bqIYeae_kL6G4RBP41k4-17" value="YES" style="text;html=1;align=center;verticalAlign=middle;resizable=0;points=[];autosize=1;strokeColor=none;fillColor=none;" vertex="1" parent="1">
          <mxGeometry x="190" y="570" width="50" height="30" as="geometry" />
        </mxCell>
        <mxCell id="bqIYeae_kL6G4RBP41k4-32" value="" style="edgeStyle=orthogonalEdgeStyle;rounded=0;orthogonalLoop=1;jettySize=auto;html=1;" edge="1" parent="1" source="bqIYeae_kL6G4RBP41k4-18" target="bqIYeae_kL6G4RBP41k4-31">
          <mxGeometry relative="1" as="geometry" />
        </mxCell>
        <mxCell id="bqIYeae_kL6G4RBP41k4-37" value="" style="edgeStyle=orthogonalEdgeStyle;rounded=0;orthogonalLoop=1;jettySize=auto;html=1;" edge="1" parent="1" source="bqIYeae_kL6G4RBP41k4-18" target="bqIYeae_kL6G4RBP41k4-36">
          <mxGeometry relative="1" as="geometry" />
        </mxCell>
        <mxCell id="bqIYeae_kL6G4RBP41k4-18" value="PW is NULL" style="rhombus;whiteSpace=wrap;html=1;strokeWidth=2;" vertex="1" parent="1">
          <mxGeometry x="340" y="510" width="80" height="80" as="geometry" />
        </mxCell>
        <mxCell id="bqIYeae_kL6G4RBP41k4-21" value="YES" style="text;html=1;align=center;verticalAlign=middle;resizable=0;points=[];autosize=1;strokeColor=none;fillColor=none;" vertex="1" parent="1">
          <mxGeometry x="380" y="570" width="50" height="30" as="geometry" />
        </mxCell>
        <mxCell id="bqIYeae_kL6G4RBP41k4-22" value="password_msg" style="swimlane;fontStyle=0;childLayout=stackLayout;horizontal=1;startSize=30;horizontalStack=0;resizeParent=1;resizeParentMax=0;resizeLast=0;collapsible=1;marginBottom=0;whiteSpace=wrap;html=1;" vertex="1" parent="1">
          <mxGeometry x="400" y="430" width="140" height="60" as="geometry" />
        </mxCell>
        <mxCell id="bqIYeae_kL6G4RBP41k4-23" value="password를 입력하세요" style="text;strokeColor=none;fillColor=none;align=left;verticalAlign=middle;spacingLeft=4;spacingRight=4;overflow=hidden;points=[[0,0.5],[1,0.5]];portConstraint=eastwest;rotatable=0;whiteSpace=wrap;html=1;" vertex="1" parent="bqIYeae_kL6G4RBP41k4-22">
          <mxGeometry y="30" width="140" height="30" as="geometry" />
        </mxCell>
        <mxCell id="bqIYeae_kL6G4RBP41k4-29" value="username_msg&lt;div&gt;request 저장&lt;/div&gt;" style="whiteSpace=wrap;html=1;strokeWidth=2;" vertex="1" parent="1">
          <mxGeometry x="130" y="620" width="120" height="60" as="geometry" />
        </mxCell>
        <mxCell id="bqIYeae_kL6G4RBP41k4-31" value="password_msg&lt;div&gt;reuqest 저장&lt;/div&gt;" style="whiteSpace=wrap;html=1;strokeWidth=2;" vertex="1" parent="1">
          <mxGeometry x="320" y="620" width="120" height="60" as="geometry" />
        </mxCell>
        <mxCell id="bqIYeae_kL6G4RBP41k4-36" value="&lt;div&gt;ID is NULL&lt;/div&gt;&lt;div&gt;or&lt;/div&gt;PW is NULL" style="rhombus;whiteSpace=wrap;html=1;strokeWidth=2;" vertex="1" parent="1">
          <mxGeometry x="500" y="510" width="80" height="80" as="geometry" />
        </mxCell>
        <mxCell id="bqIYeae_kL6G4RBP41k4-38" value="" style="endArrow=classic;html=1;rounded=0;exitX=0.5;exitY=0;exitDx=0;exitDy=0;entryX=1;entryY=0.5;entryDx=0;entryDy=0;" edge="1" parent="1" source="bqIYeae_kL6G4RBP41k4-36" target="bqIYeae_kL6G4RBP41k4-4">
          <mxGeometry width="50" height="50" relative="1" as="geometry">
            <mxPoint x="355" y="320" as="sourcePoint" />
            <mxPoint x="405" y="270" as="targetPoint" />
            <Array as="points">
              <mxPoint x="540" y="340" />
            </Array>
          </mxGeometry>
        </mxCell>
        <mxCell id="bqIYeae_kL6G4RBP41k4-42" value="" style="endArrow=classic;html=1;rounded=0;exitX=0.5;exitY=1;exitDx=0;exitDy=0;entryX=1;entryY=0.5;entryDx=0;entryDy=0;entryPerimeter=0;" edge="1" parent="1" source="bqIYeae_kL6G4RBP41k4-36" target="bqIYeae_kL6G4RBP41k4-45">
          <mxGeometry width="50" height="50" relative="1" as="geometry">
            <mxPoint x="540" y="930" as="sourcePoint" />
            <mxPoint x="50" y="850" as="targetPoint" />
            <Array as="points">
              <mxPoint x="540" y="850" />
            </Array>
          </mxGeometry>
        </mxCell>
        <mxCell id="bqIYeae_kL6G4RBP41k4-43" value="YES" style="text;html=1;align=center;verticalAlign=middle;resizable=0;points=[];autosize=1;strokeColor=none;fillColor=none;" vertex="1" parent="1">
          <mxGeometry x="540" y="490" width="50" height="30" as="geometry" />
        </mxCell>
        <mxCell id="bqIYeae_kL6G4RBP41k4-44" value="NO" style="text;html=1;align=center;verticalAlign=middle;resizable=0;points=[];autosize=1;strokeColor=none;fillColor=none;" vertex="1" parent="1">
          <mxGeometry x="545" y="580" width="40" height="30" as="geometry" />
        </mxCell>
        <mxCell id="bqIYeae_kL6G4RBP41k4-48" value="" style="edgeStyle=orthogonalEdgeStyle;rounded=0;orthogonalLoop=1;jettySize=auto;html=1;" edge="1" parent="1" source="bqIYeae_kL6G4RBP41k4-45" target="bqIYeae_kL6G4RBP41k4-47">
          <mxGeometry relative="1" as="geometry" />
        </mxCell>
        <mxCell id="bqIYeae_kL6G4RBP41k4-60" value="" style="edgeStyle=orthogonalEdgeStyle;rounded=0;orthogonalLoop=1;jettySize=auto;html=1;" edge="1" parent="1" source="bqIYeae_kL6G4RBP41k4-45" target="bqIYeae_kL6G4RBP41k4-59">
          <mxGeometry relative="1" as="geometry" />
        </mxCell>
        <mxCell id="bqIYeae_kL6G4RBP41k4-45" value="ID is admin" style="strokeWidth=2;html=1;shape=mxgraph.flowchart.decision;whiteSpace=wrap;" vertex="1" parent="1">
          <mxGeometry x="-60" y="800" width="100" height="100" as="geometry" />
        </mxCell>
        <mxCell id="bqIYeae_kL6G4RBP41k4-58" value="" style="edgeStyle=orthogonalEdgeStyle;rounded=0;orthogonalLoop=1;jettySize=auto;html=1;" edge="1" parent="1" source="bqIYeae_kL6G4RBP41k4-47" target="bqIYeae_kL6G4RBP41k4-57">
          <mxGeometry relative="1" as="geometry" />
        </mxCell>
        <mxCell id="bqIYeae_kL6G4RBP41k4-64" value="" style="edgeStyle=orthogonalEdgeStyle;rounded=0;orthogonalLoop=1;jettySize=auto;html=1;" edge="1" parent="1" source="bqIYeae_kL6G4RBP41k4-47" target="bqIYeae_kL6G4RBP41k4-63">
          <mxGeometry relative="1" as="geometry" />
        </mxCell>
        <mxCell id="bqIYeae_kL6G4RBP41k4-47" value="PW is 1234" style="strokeWidth=2;html=1;shape=mxgraph.flowchart.decision;whiteSpace=wrap;" vertex="1" parent="1">
          <mxGeometry x="-60" y="930" width="100" height="100" as="geometry" />
        </mxCell>
        <mxCell id="bqIYeae_kL6G4RBP41k4-51" value="username_msg" style="swimlane;fontStyle=0;childLayout=stackLayout;horizontal=1;startSize=30;horizontalStack=0;resizeParent=1;resizeParentMax=0;resizeLast=0;collapsible=1;marginBottom=0;whiteSpace=wrap;html=1;" vertex="1" parent="1">
          <mxGeometry x="-180" y="700" width="165" height="60" as="geometry" />
        </mxCell>
        <mxCell id="bqIYeae_kL6G4RBP41k4-52" value="해당 id는 존재 하지 않습니다" style="text;strokeColor=none;fillColor=none;align=left;verticalAlign=middle;spacingLeft=4;spacingRight=4;overflow=hidden;points=[[0,0.5],[1,0.5]];portConstraint=eastwest;rotatable=0;whiteSpace=wrap;html=1;" vertex="1" parent="bqIYeae_kL6G4RBP41k4-51">
          <mxGeometry y="30" width="165" height="30" as="geometry" />
        </mxCell>
        <mxCell id="bqIYeae_kL6G4RBP41k4-55" value="password_msg" style="swimlane;fontStyle=0;childLayout=stackLayout;horizontal=1;startSize=30;horizontalStack=0;resizeParent=1;resizeParentMax=0;resizeLast=0;collapsible=1;marginBottom=0;whiteSpace=wrap;html=1;" vertex="1" parent="1">
          <mxGeometry x="-400" y="930" width="110" height="60" as="geometry" />
        </mxCell>
        <mxCell id="bqIYeae_kL6G4RBP41k4-56" value="password 불일치" style="text;strokeColor=none;fillColor=none;align=left;verticalAlign=middle;spacingLeft=4;spacingRight=4;overflow=hidden;points=[[0,0.5],[1,0.5]];portConstraint=eastwest;rotatable=0;whiteSpace=wrap;html=1;" vertex="1" parent="bqIYeae_kL6G4RBP41k4-55">
          <mxGeometry y="30" width="110" height="30" as="geometry" />
        </mxCell>
        <mxCell id="bqIYeae_kL6G4RBP41k4-57" value="password_msg&lt;div&gt;reuqest 저장&lt;/div&gt;" style="whiteSpace=wrap;html=1;strokeWidth=2;" vertex="1" parent="1">
          <mxGeometry x="-250" y="950" width="120" height="60" as="geometry" />
        </mxCell>
        <mxCell id="bqIYeae_kL6G4RBP41k4-59" value="username_msg&lt;div&gt;request 저장&lt;/div&gt;" style="whiteSpace=wrap;html=1;strokeWidth=2;" vertex="1" parent="1">
          <mxGeometry x="-250" y="820" width="120" height="60" as="geometry" />
        </mxCell>
        <mxCell id="bqIYeae_kL6G4RBP41k4-61" value="" style="endArrow=classic;html=1;rounded=0;exitX=0;exitY=0.5;exitDx=0;exitDy=0;entryX=0;entryY=0.5;entryDx=0;entryDy=0;" edge="1" parent="1" source="bqIYeae_kL6G4RBP41k4-57" target="bqIYeae_kL6G4RBP41k4-4">
          <mxGeometry width="50" height="50" relative="1" as="geometry">
            <mxPoint y="650" as="sourcePoint" />
            <mxPoint x="50" y="600" as="targetPoint" />
            <Array as="points">
              <mxPoint x="-280" y="980" />
              <mxPoint x="-280" y="340" />
              <mxPoint x="-190" y="340" />
            </Array>
          </mxGeometry>
        </mxCell>
        <mxCell id="bqIYeae_kL6G4RBP41k4-62" value="" style="endArrow=classic;html=1;rounded=0;exitX=0.5;exitY=0;exitDx=0;exitDy=0;entryX=0;entryY=0.5;entryDx=0;entryDy=0;" edge="1" parent="1" source="bqIYeae_kL6G4RBP41k4-59" target="bqIYeae_kL6G4RBP41k4-4">
          <mxGeometry width="50" height="50" relative="1" as="geometry">
            <mxPoint x="-175" y="610" as="sourcePoint" />
            <mxPoint x="-125" y="560" as="targetPoint" />
            <Array as="points">
              <mxPoint x="-190" y="340" />
            </Array>
          </mxGeometry>
        </mxCell>
        <mxCell id="bqIYeae_kL6G4RBP41k4-68" value="" style="edgeStyle=orthogonalEdgeStyle;rounded=0;orthogonalLoop=1;jettySize=auto;html=1;" edge="1" parent="1" source="bqIYeae_kL6G4RBP41k4-63" target="bqIYeae_kL6G4RBP41k4-67">
          <mxGeometry relative="1" as="geometry" />
        </mxCell>
        <mxCell id="bqIYeae_kL6G4RBP41k4-63" value="사용자 정보를 저장&lt;div&gt;isAuth / Rolle&lt;/div&gt;" style="whiteSpace=wrap;html=1;strokeWidth=2;" vertex="1" parent="1">
          <mxGeometry x="-70" y="1060" width="120" height="60" as="geometry" />
        </mxCell>
        <mxCell id="bqIYeae_kL6G4RBP41k4-70" value="" style="edgeStyle=orthogonalEdgeStyle;rounded=0;orthogonalLoop=1;jettySize=auto;html=1;" edge="1" parent="1" source="bqIYeae_kL6G4RBP41k4-67" target="bqIYeae_kL6G4RBP41k4-69">
          <mxGeometry relative="1" as="geometry" />
        </mxCell>
        <mxCell id="bqIYeae_kL6G4RBP41k4-67" value="MAIN PAGE&lt;div&gt;이동 출력&lt;/div&gt;" style="shape=parallelogram;perimeter=parallelogramPerimeter;whiteSpace=wrap;html=1;fixedSize=1;strokeWidth=2;" vertex="1" parent="1">
          <mxGeometry x="-70" y="1150" width="120" height="60" as="geometry" />
        </mxCell>
        <mxCell id="bqIYeae_kL6G4RBP41k4-72" value="" style="edgeStyle=orthogonalEdgeStyle;rounded=0;orthogonalLoop=1;jettySize=auto;html=1;" edge="1" parent="1" source="bqIYeae_kL6G4RBP41k4-69" target="bqIYeae_kL6G4RBP41k4-71">
          <mxGeometry relative="1" as="geometry" />
        </mxCell>
        <mxCell id="bqIYeae_kL6G4RBP41k4-69" value="MAIN PAGE&lt;div&gt;이동&lt;/div&gt;" style="whiteSpace=wrap;html=1;strokeWidth=2;" vertex="1" parent="1">
          <mxGeometry x="-70" y="1240" width="120" height="60" as="geometry" />
        </mxCell>
        <mxCell id="bqIYeae_kL6G4RBP41k4-74" value="" style="edgeStyle=orthogonalEdgeStyle;rounded=0;orthogonalLoop=1;jettySize=auto;html=1;" edge="1" parent="1" source="bqIYeae_kL6G4RBP41k4-71" target="bqIYeae_kL6G4RBP41k4-73">
          <mxGeometry relative="1" as="geometry" />
        </mxCell>
        <mxCell id="bqIYeae_kL6G4RBP41k4-71" value="MAIN PAGE" style="shape=document;whiteSpace=wrap;html=1;boundedLbl=1;strokeWidth=2;" vertex="1" parent="1">
          <mxGeometry x="-70" y="1329" width="120" height="80" as="geometry" />
        </mxCell>
        <mxCell id="bqIYeae_kL6G4RBP41k4-73" value="종료" style="strokeWidth=2;html=1;shape=mxgraph.flowchart.terminator;whiteSpace=wrap;" vertex="1" parent="1">
          <mxGeometry x="-60" y="1440" width="100" height="60" as="geometry" />
        </mxCell>
      </root>
    </mxGraphModel>
  </diagram>
</mxfile>
